GIL06_slow2_ik
nRows=3
nColumns=375

# SIMM Motion File Header:
name GIL06_slow2_ik
datacolumns 375
datarows 3
otherdata 1
range 0.23333000 0.25000000
endheader
time	pelvis_tx	pelvis_ty	pelvis_tz	pelvis_tilt	pelvis_list	pelvis_rotation	hip_flexion_r	hip_adduction_r	hip_rotation_r	knee_angle_r	ankle_angle_r	hip_flexion_l	hip_adduction_l	hip_rotation_l	knee_angle_l	ankle_angle_l	lumbar_extension	lumbar_bending	lumbar_rotation	subtalar_angle_r	mtp_angle_r	subtalar_angle_l	mtp_angle_l	asis_r_px	asis_r_py	asis_r_pz	asis_l_px	asis_l_py	asis_l_pz	midasis_px	midasis_py	midasis_pz	psis_r_px	psis_r_py	psis_r_pz	psis_l_px	psis_l_py	psis_l_pz	hip_r_px	hip_r_py	hip_r_pz	hip_l_px	hip_l_py	hip_l_pz	midhip_px	midhip_py	midhip_pz	epicondLat_r_px	epicondLat_r_py	epicondLat_r_pz	epicondMed_r_px	epicondMed_r_py	epicondMed_r_pz	thighwand_r_px	thighwand_r_py	thighwand_r_pz	upperleg1_r_px	upperleg1_r_py	upperleg1_r_pz	upperleg2_r_px	upperleg2_r_py	upperleg2_r_pz	malleolusLat_r_px	malleolusLat_r_py	malleolusLat_r_pz	malleolusMedv_r_px	malleolusMedv_r_py	malleolusMedv_r_pz	shankwand_r_px	shankwand_r_py	shankwand_r_pz	lowerleg1_r_px	lowerleg1_r_py	lowerleg1_r_pz	knee_r_px	knee_r_py	knee_r_pz	ankle_r_px	ankle_r_py	ankle_r_pz	toe_r_px	toe_r_py	toe_r_pz	epicondLat_l_px	epicondLat_l_py	epicondLat_l_pz	epicondMed_l_px	epicondMed_l_py	epicondMed_l_pz	thighwand_l_px	thighwand_l_py	thighwand_l_pz	upperleg1_l_px	upperleg1_l_py	upperleg1_l_pz	upperleg2_l_px	upperleg2_l_py	upperleg2_l_pz	malleolusLat_l_px	malleolusLat_l_py	malleolusLat_l_pz	malleolusMedv_l_px	malleolusMedv_l_py	malleolusMedv_l_pz	shankwand_l_px	shankwand_l_py	shankwand_l_pz	lowerleg1_l_px	lowerleg1_l_py	lowerleg1_l_pz	knee_l_px	knee_l_py	knee_l_pz	ankle_l_px	ankle_l_py	ankle_l_pz	toe_l_px	toe_l_py	toe_l_pz	subclavicle_r_px	subclavicle_r_py	subclavicle_r_pz	subclavicle_l_px	subclavicle_l_py	subclavicle_l_pz	neck_px	neck_py	neck_pz	sternalnotch_px	sternalnotch_py	sternalnotch_pz	xyphoidprocess_px	xyphoidprocess_py	xyphoidprocess_pz	midhip_tx	midhip_ty	midhip_tz	hip_r_tx	hip_r_ty	hip_r_tz	hip_l_tx	hip_l_ty	hip_l_tz	knee_r_tx	knee_r_ty	knee_r_tz	knee_l_tx	knee_l_ty	knee_l_tz	ankle_r_tx	ankle_r_ty	ankle_r_tz	ankle_l_tx	ankle_l_ty	ankle_l_tz	midasis_tx	midasis_ty	midasis_tz	asis_r_tx	asis_r_ty	asis_r_tz	asis_l_tx	asis_l_ty	asis_l_tz	psis_r_tx	psis_r_ty	psis_r_tz	psis_l_tx	psis_l_ty	psis_l_tz	epicondLat_r_tx	epicondLat_r_ty	epicondLat_r_tz	epicondLat_l_tx	epicondLat_l_ty	epicondLat_l_tz	epicondMed_r_tx	epicondMed_r_ty	epicondMed_r_tz	epicondMed_l_tx	epicondMed_l_ty	epicondMed_l_tz	malleolusLat_r_tx	malleolusLat_r_ty	malleolusLat_r_tz	malleolusLat_l_tx	malleolusLat_l_ty	malleolusLat_l_tz	malleolusMedv_r_tx	malleolusMedv_r_ty	malleolusMedv_r_tz	malleolusMedv_l_tx	malleolusMedv_l_ty	malleolusMedv_l_tz	neck_tx	neck_ty	neck_tz	subclavicle_r_tx	subclavicle_r_ty	subclavicle_r_tz	subclavicle_l_tx	subclavicle_l_ty	subclavicle_l_tz	sternalnotch_tx	sternalnotch_ty	sternalnotch_tz	xyphoidprocess_tx	xyphoidprocess_ty	xyphoidprocess_tz	thighwand_r_tx	thighwand_r_ty	thighwand_r_tz	thighwand_l_tx	thighwand_l_ty	thighwand_l_tz	upperleg1_r_tx	upperleg1_r_ty	upperleg1_r_tz	upperleg1_l_tx	upperleg1_l_ty	upperleg1_l_tz	upperleg2_r_tx	upperleg2_r_ty	upperleg2_r_tz	upperleg2_l_tx	upperleg2_l_ty	upperleg2_l_tz	shankwand_r_tx	shankwand_r_ty	shankwand_r_tz	shankwand_l_tx	shankwand_l_ty	shankwand_l_tz	lowerleg1_r_tx	lowerleg1_r_ty	lowerleg1_r_tz	lowerleg1_l_tx	lowerleg1_l_ty	lowerleg1_l_tz	toe_r_tx	toe_r_ty	toe_r_tz	toe_l_tx	toe_l_ty	toe_l_tz	ground_force_vx	ground_force_vy	ground_force_vz	ground_force_px	ground_force_py	ground_force_pz	ground_force_vx	ground_force_vy	ground_force_vz	ground_force_px	ground_force_py	ground_force_pz	ground_torque_x	ground_torque_y	ground_torque_z	ground_torque_x	ground_torque_y	ground_torque_z	ground_marker_px	ground_marker_py	ground_marker_pz	ground_marker_px	ground_marker_py	ground_marker_pz	ground_marker_px	ground_marker_py	ground_marker_pz	ground_marker_px	ground_marker_py	ground_marker_pz	ground_marker_px	ground_marker_py	ground_marker_pz	ground_marker_px	ground_marker_py	ground_marker_pz	ground_marker_px	ground_marker_py	ground_marker_pz	ground_marker_px	ground_marker_py	ground_marker_pz	ground_marker_px	ground_marker_py	ground_marker_pz	ground_marker_px	ground_marker_py	ground_marker_pz	ground_marker_px	ground_marker_py	ground_marker_pz	ground_marker_px	ground_marker_py	ground_marker_pz	ground_marker_px	ground_marker_py	ground_marker_pz	ground_marker_px	ground_marker_py	ground_marker_pz	ground_marker_px	ground_marker_py	ground_marker_pz	ground_marker_px	ground_marker_py	ground_marker_pz	ground_marker_px	ground_marker_py	ground_marker_pz	ground_marker_px	ground_marker_py	ground_marker_pz	ground_marker_px	ground_marker_py	ground_marker_pz	ground_marker_px	ground_marker_py	ground_marker_pz	ground_marker_px	ground_marker_py	ground_marker_pz	ground_marker_px	ground_marker_py	ground_marker_pz	ground_marker_px	ground_marker_py	ground_marker_pz	ground_marker_px	ground_marker_py	ground_marker_pz	ground_marker_px	ground_marker_py	ground_marker_pz	ground_marker_px	ground_marker_py	ground_marker_pz	ground_marker_px	ground_marker_py	ground_marker_pz	ground_marker_px	ground_marker_py	ground_marker_pz	ground_marker_px	ground_marker_py	ground_marker_pz	ground_marker_px	ground_marker_py	ground_marker_pz	ground_marker_px	ground_marker_py	ground_marker_pz	ground_marker_px	ground_marker_py	ground_marker_pz	ground_marker_px	ground_marker_py	ground_marker_pz	ground_marker_px	ground_marker_py	ground_marker_pz	ground_marker_px	ground_marker_py	ground_marker_pz	ground_marker_px	ground_marker_py	ground_marker_pz	ground_marker_px	ground_marker_py	ground_marker_pz
      0.23333000	      1.44224577	      0.83955701	     -0.26398074	     -5.33450336	      3.38012514	     -3.77735511	      1.77346899	     -6.43304457	     -0.86016190	    -46.28596295	    -20.85546955	     14.01481905	      5.95657369	      0.90077433	     -5.90742879	     -3.79668232	      7.26552415	     -5.22286123	     11.78420869	      0.00000000	      0.00000000	      0.00000000	      0.00000000	      1.48969502	      0.81653413	     -0.14432526	      1.50575116	      0.82870868	     -0.38941900	      1.45560262	      0.83825736	     -0.26309626	      1.26538334	      0.93044201	     -0.24283011	      1.26462092	      0.93191072	     -0.29804930	      1.36320014	      0.77879916	     -0.19229077	      1.37460077	      0.78721398	     -0.35209169	      1.36890045	      0.78300657	     -0.27219123	      1.33260012	      0.39985490	     -0.11191828	      1.32515569	      0.40170334	     -0.25683398	      1.50056188	      0.54360529	     -0.10929364	      1.46509063	      0.56730574	     -0.13304654	      1.43366108	      0.49630693	     -0.13862936	      1.04108650	      0.17727853	     -0.13390641	      1.06298576	      0.16478497	     -0.20638683	      1.21454578	      0.20130934	     -0.14068443	      1.19086705	      0.23892313	     -0.15811557	      1.33993719	      0.40778731	     -0.17156950	      1.05744656	      0.17152434	     -0.17951893	      1.06990748	      0.06088211	     -0.15975387	      1.42952707	      0.41121543	     -0.39589957	      1.41930807	      0.40502114	     -0.24776612	      1.57809736	      0.61606279	     -0.34128873	      1.52965661	      0.62436813	     -0.35151154	      1.52221781	      0.55111371	     -0.34543606	      1.42028558	      0.04156244	     -0.35324172	      1.43181557	      0.06274320	     -0.27700871	      1.40561931	      0.14899192	     -0.42483134	      1.40634674	      0.16317749	     -0.37804897	      1.42334920	      0.42430642	     -0.32956047	      1.43815329	      0.05675572	     -0.31028202	      1.53614806	      0.03118918	     -0.31962491	      1.40511933	      1.28432149	     -0.23573950	      1.40280511	      1.28508562	     -0.31763375	      1.26358835	      1.32533569	     -0.27016406	      1.38819364	      1.27619592	     -0.28849989	      1.45350171	      1.21415691	     -0.28972645	      1.36679200	      0.77627900	     -0.27329600	      1.34131100	      0.77758900	     -0.19549700	      1.35287700	      0.78324000	     -0.35059300	      1.31876000	      0.39528900	     -0.16522100	      1.40953200	      0.42691800	     -0.32407600	      1.05050100	      0.16231100	     -0.19156900	      1.43083200	      0.05803000	     -0.30257900	      1.47534900	      0.85067700	     -0.26092100	      1.46621900	      0.84621600	     -0.13848900	      1.48447900	      0.85513800	     -0.38335300	      1.23184600	      0.92464900	     -0.23721000	      1.23117000	      0.92456900	     -0.29161800	      1.31306800	      0.40124900	     -0.09419700	      1.41709400	      0.42283800	     -0.39505800	      1.34736500	      0.38924600	     -0.23410300	      1.39037000	      0.41666300	     -0.24182400	      1.04023800	      0.17002300	     -0.15527300	      1.41628600	      0.05505700	     -0.33918200	      1.06450200	      0.16545600	     -0.22645200	      1.42845200	      0.07434500	     -0.26259400	      1.27392200	      1.34882500	     -0.27267800	      1.39981100	      1.27999200	     -0.23375600	      1.40011300	      1.28123000	     -0.31637000	      1.38287300	      1.27575800	     -0.28720800	      1.43371000	      1.20112500	     -0.28709900	      1.48569500	      0.55716800	     -0.07902300	      1.55955700	      0.62364100	     -0.32348800	      1.45178800	      0.57688100	     -0.10706000	      1.51270000	      0.63262100	     -0.33872600	      1.42990200	      0.50271900	     -0.11134000	      1.50383800	      0.55984800	     -0.33205800	      1.21050700	      0.19159800	     -0.14510300	      1.40894500	      0.15808800	     -0.41091600	      1.18551700	      0.23072300	     -0.15912500	      1.40999400	      0.17246100	     -0.36472600	      1.07856200	      0.06062100	     -0.19554000	      1.53163600	      0.04859300	     -0.31607400	      0.00000000	      0.00000000	      0.00000000	      1.82751440	      0.00000000	     -0.22806212	    -57.70143878	    750.84958555	     13.13298147	      1.45482776	      0.00000000	     -0.29556927	      0.00000000	      0.00000000	      0.00000000	      0.00000000	      2.15264087	      0.00000000	      1.36679173	      0.77627885	     -0.27329642	      1.34131098	      0.77758855	     -0.19549736	      1.35287678	      0.78324008	     -0.35059321	      1.31875956	      0.39528888	     -0.16522069	      1.40953207	      0.42691785	     -0.32407594	      1.05050135	      0.16231085	     -0.19156928	      1.43083227	      0.05803023	     -0.30257887	      1.47534895	      0.85067689	     -0.26092082	      1.46621895	      0.84621567	     -0.13848890	      1.48447883	      0.85513812	     -0.38335273	      1.23184597	      0.92464942	     -0.23721011	      1.23117018	      0.92456865	     -0.29161847	      1.31306839	      0.40124935	     -0.09419723	      1.41709399	      0.42283776	     -0.39505777	      1.34736502	      0.38924560	     -0.23410331	      1.39036989	      0.41666338	     -0.24182418	      1.04023826	      0.17002308	     -0.15527271	      1.41628575	      0.05505721	     -0.33918232	      1.06450212	      0.16545609	     -0.22645184	      1.42845201	      0.07434505	     -0.26259434	      1.27392220	      1.34882450	     -0.27267784	      1.39981055	      1.27999187	     -0.23375629	      1.40011311	      1.28123033	     -0.31636989	      1.38287306	      1.27575827	     -0.28720778	      1.43370986	      1.20112479	     -0.28709942	      1.48569465	      0.55716789	     -0.07902293	      1.55955732	      0.62364107	     -0.32348827	      1.45178819	      0.57688099	     -0.10705971	      1.51269984	      0.63262057	     -0.33872625	      1.42990243	      0.50271869	     -0.11133952	      1.50383830	      0.55984843	     -0.33205834	      1.21050680	      0.19159834	     -0.14510272	      1.40894496	      0.15808824	     -0.41091576	      1.18551695	      0.23072295	     -0.15912536	      1.40999424	      0.17246096	     -0.36472604	      1.07856214	      0.06062074	     -0.19553974	      1.53163624	      0.04859327	     -0.31607449
      0.24167000	      1.44918140	      0.83963657	     -0.26526341	     -5.32027070	      3.33056504	     -3.85317615	      3.04710579	     -6.67136528	     -0.84451845	    -48.61828672	    -20.89072575	     13.33385917	      6.02110603	      0.62864986	     -5.59584020	     -3.43025362	      7.25631651	     -4.99132285	     11.50390226	      0.00000000	      0.00000000	      0.00000000	      0.00000000	      1.49648674	      0.81673956	     -0.14552682	      1.51284351	      0.82867573	     -0.39061241	      1.46253737	      0.83834007	     -0.26436116	      1.27227750	      0.93051198	     -0.24442066	      1.27158303	      0.93192624	     -0.29964216	      1.37005763	      0.77893571	     -0.19361136	      1.38165419	      0.78719528	     -0.35340628	      1.37585591	      0.78306550	     -0.27350882	      1.34764483	      0.39995524	     -0.11074809	      1.34044623	      0.40067081	     -0.25568623	      1.51239761	      0.54738280	     -0.10878503	      1.47646021	      0.57013733	     -0.13276118	      1.44661144	      0.49842808	     -0.13792353	      1.05191189	      0.18233389	     -0.13328225	      1.07389666	      0.16918577	     -0.20562087	      1.22581414	      0.20313219	     -0.13936381	      1.20291225	      0.24111615	     -0.15702866	      1.35513731	      0.40714958	     -0.17038740	      1.06836427	      0.17611977	     -0.17880113	      1.07862390	      0.06532608	     -0.15862356	      1.43187284	      0.41048058	     -0.39670826	      1.42216225	      0.40468668	     -0.24852443	      1.58311440	      0.61362321	     -0.34307083	      1.53473745	      0.62249295	     -0.35312016	      1.52644036	      0.54934503	     -0.34687537	      1.42036334	      0.04101464	     -0.35310758	      1.43235364	      0.06230254	     -0.27697550	      1.40611094	      0.14836586	     -0.42489791	      1.40712896	      0.16265939	     -0.37815385	      1.42606960	      0.42378592	     -0.33037594	      1.43851174	      0.05619255	     -0.31026025	      1.53644167	      0.03056145	     -0.32009325	      1.41167992	      1.28431182	     -0.23576892	      1.40985605	      1.28533605	     -0.31767272	      1.27033691	      1.32536636	     -0.27091023	      1.39507480	      1.27634631	     -0.28865544	      1.46042058	      1.21434349	     -0.28968826	      1.37364200	      0.77620600	     -0.27442700	      1.34815800	      0.77756600	     -0.19663500	      1.35986400	      0.78298700	     -0.35172800	      1.33378400	      0.39430900	     -0.16346400	      1.41211700	      0.42710000	     -0.32466000	      1.06175400	      0.16658500	     -0.19137000	      1.43106300	      0.05799000	     -0.30255800	      1.48225600	      0.85055600	     -0.26204600	      1.47301300	      0.84627600	     -0.13958200	      1.49149900	      0.85483700	     -0.38451000	      1.23855600	      0.92439100	     -0.23846400	      1.23806600	      0.92462100	     -0.29289300	      1.32789200	      0.40067200	     -0.09249200	      1.41934000	      0.42276000	     -0.39566200	      1.36241100	      0.38701500	     -0.23003100	      1.39308800	      0.41744800	     -0.24245000	      1.05150000	      0.17438900	     -0.15509000	      1.41642000	      0.05504900	     -0.33912500	      1.07531800	      0.16914800	     -0.22612500	      1.42717400	      0.07456000	     -0.26238800	      1.28079800	      1.34921400	     -0.27322800	      1.40625800	      1.28036500	     -0.23409700	      1.40711800	      1.28142900	     -0.31665200	      1.38971900	      1.27601700	     -0.28764800	      1.44041700	      1.20134400	     -0.28701700	      1.49758400	      0.56006700	     -0.07798900	      1.56455000	      0.62183600	     -0.32514200	      1.46331400	      0.57858700	     -0.10586100	      1.51805300	      0.63184100	     -0.34009900	      1.44296900	      0.50370300	     -0.10910700	      1.50810600	      0.55869200	     -0.33330800	      1.22226300	      0.19272100	     -0.14415700	      1.40958000	      0.15801200	     -0.41113500	      1.19657800	      0.23235000	     -0.15855700	      1.40984000	      0.17231900	     -0.36502900	      1.08779700	      0.06405400	     -0.19445100	      1.53166600	      0.04853800	     -0.31607100	      0.00000000	      0.00000000	      0.00000000	      1.83033105	      0.00000000	     -0.22862582	    -54.61595745	    764.89934086	     13.74899473	      1.45600549	      0.00000000	     -0.29542169	      0.00000000	      0.00000000	      0.00000000	      0.00000000	      2.14582080	      0.00000000	      1.37364185	      0.77620590	     -0.27442658	      1.34815836	      0.77756596	     -0.19663472	      1.35986400	      0.78298688	     -0.35172826	      1.33378410	      0.39430878	     -0.16346405	      1.41211677	      0.42709991	     -0.32466048	      1.06175375	      0.16658546	     -0.19136959	      1.43106294	      0.05798997	     -0.30255777	      1.48225558	      0.85055643	     -0.26204574	      1.47301257	      0.84627599	     -0.13958187	      1.49149859	      0.85483688	     -0.38450959	      1.23855555	      0.92439085	     -0.23846354	      1.23806632	      0.92462063	     -0.29289317	      1.32789218	      0.40067235	     -0.09249194	      1.41933978	      0.42276019	     -0.39566219	      1.36241090	      0.38701472	     -0.23003145	      1.39308822	      0.41744813	     -0.24244995	      1.05149996	      0.17438863	     -0.15508987	      1.41641974	      0.05504865	     -0.33912519	      1.07531822	      0.16914812	     -0.22612526	      1.42717421	      0.07456040	     -0.26238829	      1.28079784	      1.34921420	     -0.27322760	      1.40625799	      1.28036475	     -0.23409747	      1.40711784	      1.28142893	     -0.31665158	      1.38971889	      1.27601683	     -0.28764766	      1.44041705	      1.20134401	     -0.28701726	      1.49758434	      0.56006730	     -0.07798867	      1.56454980	      0.62183607	     -0.32514182	      1.46331429	      0.57858747	     -0.10586142	      1.51805329	      0.63184065	     -0.34009939	      1.44296861	      0.50370318	     -0.10910730	      1.50810623	      0.55869150	     -0.33330816	      1.22226334	      0.19272077	     -0.14415699	      1.40958035	      0.15801197	     -0.41113529	      1.19657826	      0.23235016	     -0.15855744	      1.40984023	      0.17231946	     -0.36502936	      1.08779681	      0.06405351	     -0.19445060	      1.53166604	      0.04853818	     -0.31607097
      0.25000000	      1.45599119	      0.83956998	     -0.26643215	     -5.35142109	      3.29748846	     -3.91991650	      4.42086001	     -6.87861353	     -0.78121420	    -50.92088659	    -20.49674475	     12.69314633	      6.09377646	      0.40214267	     -5.25688473	     -3.07992812	      7.27858256	     -4.80830824	     11.26227841	      0.00000000	      0.00000000	      0.00000000	      0.00000000	      1.50315032	      0.81672590	     -0.14662780	      1.51978494	      0.82848462	     -0.39170326	      1.46934537	      0.83826594	     -0.26551427	      1.27911999	      0.93056762	     -0.24584682	      1.27848735	      0.93194457	     -0.30107001	      1.37675128	      0.77896642	     -0.19482611	      1.38852928	      0.78710972	     -0.35461373	      1.38264028	      0.78303807	     -0.27471992	      1.36293861	      0.40007400	     -0.10971094	      1.35589679	      0.39975714	     -0.25465820	      1.52426428	      0.55125166	     -0.10846159	      1.48784280	      0.57303188	     -0.13261153	      1.45965270	      0.50062710	     -0.13737413	      1.06339523	      0.18705468	     -0.13280429	      1.08542780	      0.17334035	     -0.20502313	      1.23764813	      0.20487553	     -0.13827150	      1.21546334	      0.24319599	     -0.15612372	      1.37054190	      0.40657962	     -0.16933184	      1.07991234	      0.18043943	     -0.17824313	      1.08894431	      0.06963913	     -0.15752226	      1.43404587	      0.40974609	     -0.39746080	      1.42474413	      0.40430660	     -0.24923730	      1.58790676	      0.61112829	     -0.34464084	      1.53960850	      0.62056696	     -0.35454942	      1.53044710	      0.54753490	     -0.34815851	      1.42040423	      0.04046871	     -0.35301050	      1.43279570	      0.06184657	     -0.27696791	      1.40656603	      0.14775068	     -0.42498515	      1.40783813	      0.16213892	     -0.37827638	      1.42857102	      0.42324543	     -0.33113750	      1.43879800	      0.05562619	     -0.31026068	      1.53667149	      0.02994707	     -0.32052103	      1.41831740	      1.28422381	     -0.23590192	      1.41692265	      1.28545968	     -0.31781123	      1.27715336	      1.32534642	     -0.27167731	      1.40199108	      1.27639251	     -0.28889518	      1.46735219	      1.21440308	     -0.28974585	      1.38029300	      0.77602700	     -0.27546000	      1.35483000	      0.77743800	     -0.19767700	      1.36667100	      0.78267300	     -0.35276700	      1.34907600	      0.39348400	     -0.16189300	      1.41451800	      0.42723500	     -0.32521700	      1.07361900	      0.17060500	     -0.19131000	      1.43125000	      0.05794700	     -0.30254300	      1.48903800	      0.85025300	     -0.26305800	      1.47968300	      0.84611700	     -0.14053400	      1.49839300	      0.85438800	     -0.38558100	      1.24518400	      0.92413700	     -0.23967200	      1.24487800	      0.92469100	     -0.29413000	      1.34302200	      0.40018600	     -0.09096600	      1.42145400	      0.42266400	     -0.39623200	      1.37809200	      0.38701200	     -0.22901600	      1.39455200	      0.41764400	     -0.24407500	      1.06341700	      0.17842400	     -0.15501900	      1.41653900	      0.05503700	     -0.33908600	      1.08767100	      0.17253400	     -0.22591000	      1.42650300	      0.07472400	     -0.26229500	      1.28806900	      1.34939600	     -0.27391500	      1.41304800	      1.28091600	     -0.23452900	      1.41363000	      1.28157300	     -0.31701600	      1.39646400	      1.27622200	     -0.28795300	      1.44695500	      1.20160400	     -0.28713700	      1.50951500	      0.56306200	     -0.07718000	      1.56938500	      0.61996000	     -0.32658200	      1.47546100	      0.58066700	     -0.10450000	      1.52294000	      0.63060900	     -0.34090800	      1.45628800	      0.50458600	     -0.10789600	      1.51150000	      0.55720700	     -0.33469600	      1.23460200	      0.19387600	     -0.14359200	      1.41021100	      0.15794700	     -0.41135700	      1.21028500	      0.23330600	     -0.15806000	      1.41007000	      0.17226200	     -0.36529800	      1.09844900	      0.06748900	     -0.19330300	      1.53169800	      0.04848400	     -0.31606700	      0.00000000	      0.00000000	      0.00000000	      1.83302710	      0.00000000	     -0.22922073	    -50.82893377	    779.35169122	     14.81992832	      1.45746448	      0.00000000	     -0.29534146	      0.00000000	      0.00000000	      0.00000000	      0.00000000	      2.13084790	      0.00000000	      1.38029337	      0.77602679	     -0.27545995	      1.35483015	      0.77743810	     -0.19767706	      1.36667132	      0.78267330	     -0.35276672	      1.34907639	      0.39348444	     -0.16189294	      1.41451824	      0.42723525	     -0.32521653	      1.07361925	      0.17060500	     -0.19130997	      1.43124986	      0.05794748	     -0.30254284	      1.48903799	      0.85025257	     -0.26305771	      1.47968340	      0.84611672	     -0.14053418	      1.49839258	      0.85438842	     -0.38558125	      1.24518371	      0.92413694	     -0.23967192	      1.24487841	      0.92469144	     -0.29412988	      1.34302223	      0.40018553	     -0.09096556	      1.42145407	      0.42266446	     -0.39623237	      1.37809181	      0.38701183	     -0.22901624	      1.39455187	      0.41764426	     -0.24407531	      1.06341708	      0.17842405	     -0.15501909	      1.41653919	      0.05503730	     -0.33908561	      1.08767104	      0.17253445	     -0.22591008	      1.42650259	      0.07472423	     -0.26229501	      1.28806937	      1.34939611	     -0.27391499	      1.41304827	      1.28091633	     -0.23452890	      1.41363025	      1.28157306	     -0.31701559	      1.39646351	      1.27622235	     -0.28795332	      1.44695532	      1.20160377	     -0.28713661	      1.50951457	      0.56306219	     -0.07718002	      1.56938529	      0.61996019	     -0.32658157	      1.47546101	      0.58066750	     -0.10450039	      1.52293992	      0.63060874	     -0.34090838	      1.45628762	      0.50458622	     -0.10789611	      1.51149988	      0.55720651	     -0.33469629	      1.23460209	      0.19387592	     -0.14359173	      1.41021085	      0.15794747	     -0.41135687	      1.21028459	      0.23330607	     -0.15805966	      1.41007042	      0.17226231	     -0.36529839	      1.09844923	      0.06748927	     -0.19330268	      1.53169751	      0.04848445	     -0.31606671
